<?xml version="1.0" encoding="UTF-8"?>
<svg id="Layer_1" data-name="Layer 1" xmlns="http://www.w3.org/2000/svg" viewBox="0 0 98.46 45.27">
  <g>
    <path d="M27.15,27.61l.54.17.3-.16-.54-.17,1.74-.94c.38.05.95.21,1.4.31,13.79,3.09,27.83,6.32,41.83,9.53.78.18,1.65.4,2.39.54l-5.85,3.32h-.09c-.24-.04-2.11-.66-2.6-.81-.25-.08-.21-.04-.33-.07-.77-.22-1.9-.64-2.63-.81l-.9.49,5.17,1.65.31.12-6.07,3.27c-.45-.13-.6-.25-.81-.34-1.18-.5-2.48-1.02-3.46-1.47-10.85-4.58-21.43-9.12-32.16-13.68l1.77-.95h-.02ZM28.89,28.18l1.21.38.35-.19-1.21-.38s-.35.19-.35.19ZM31.95,28.83l-.38.21,1.75.56.38-.21-1.75-.56ZM37.57,30.99l.51-.27c-.46-.16-.54-.14-.77-.21-.46-.14-.99-.32-1.48-.47l-.18-.04c-.14.01-.56.16-.33.26l2.25.73h0ZM41.06,31.64l-.55.3,3.48,1.12.59-.32-3.53-1.09h0ZM49.21,34.16l-.69.37,5.89,1.89.79-.43c-1.07-.3-2.19-.69-3.19-.99-.26-.08-.17-.02-.43-.1-.38-.11-2.27-.73-2.37-.75h0Z"/>
    <path d="M59.96,45.06c-.21-.04-1.18-.54-1.31-.6-11.42-5.22-22.41-10.36-33.74-15.57l.17-.15c.34.14.79.33,1.1.47,10.56,4.65,20.76,9.26,31.05,13.85.52.23,3.59,1.54,3.51,1.58l-.79.42h0Z"/>
    <path d="M76.07,36.39c-2.01-.4-4.15-.88-6.3-1.36-12.37-2.65-24.86-5.37-37.33-8.08-.24-.05-2.81-.58-2.91-.63l.38-.09c.82.19,1.49.3,2.23.46,13.99,2.88,28.12,5.82,42.2,8.74.82.17,1.59.3,2.52.53l-.81.43h0Z"/>
  </g>
  <polygon points="61.76 22.73 44.62 23.88 40.03 18.86 56.6 12.64 61.76 22.73" style="fill: #724a26; stroke: #231f20; stroke-linecap: round; stroke-miterlimit: 10;"/>
  <polygon points="36.63 20.1 48.34 15.96 48.43 30.09 36.64 27.78 36.63 20.1" style="fill: #c1a48a; stroke: #231f20; stroke-linecap: round; stroke-miterlimit: 10;"/>
  <polygon points="60.1 20.28 48.38 16 48.38 30.09 60.1 28.33 60.1 20.28" style="fill: #c1a48a; stroke: #231f20; stroke-linecap: round; stroke-miterlimit: 10;"/>
  <polygon points="31.65 23.88 47.37 20.57 56.6 12.64 38.79 18.44 31.65 23.88" style="fill: #724a26; stroke: #231f20; stroke-linecap: round; stroke-miterlimit: 10;"/>
  <g>
    <path d="M4.02,1.29l.76,4.11.78-3.96c.06-.33.14-.55.21-.68s.2-.2.35-.2c.14,0,.33,0,.6.07s.47.07.62.07.51-.02,1.07-.09h.37c.2,0,.37.07.49.22s.18.35.18.61c0,.2-.04.39-.14.52s-.21.22-.35.22c-.06,0-.14,0-.23-.04-.1-.02-.18-.04-.21-.04-.18,0-.23.26-.23.74v3.12c0,.5.08.76.23.76.04,0,.12,0,.21-.04s.18-.04.21-.04c.14,0,.25.07.35.22s.14.33.14.52c0,.26-.06.46-.18.61s-.27.22-.49.22c-.12,0-.31,0-.59-.07-.18-.02-.37-.04-.55-.04-.12,0-.29,0-.51.07-.23.04-.39.07-.51.07-.18,0-.33-.07-.43-.22s-.18-.35-.18-.61c0-.46.12-.7.37-.7h.18c.1,0,.16-.09.18-.24V1.84l-1.27,5.55c-.1.48-.29.72-.53.72h-.59c-.23,0-.41-.22-.51-.63L2.65,1.86v4.24c0,.35.04.55.08.61,0,0,.06.04.1.04h.2c.23,0,.37.22.37.68,0,.26-.06.46-.18.61s-.25.22-.43.22c-.08,0-.2,0-.33-.04-.18-.02-.27-.04-.31-.07h-.43c-.2,0-.37,0-.51.04l-.57.09c-.2,0-.33-.07-.47-.24s-.18-.35-.18-.61c0-.22.04-.39.14-.52s.21-.2.35-.2c.04,0,.12,0,.21.04.1.02.18.04.21.04.12,0,.2-.09.23-.28V2.47c-.04-.2-.1-.28-.23-.28-.04,0-.12,0-.21.04-.1.02-.18.04-.21.04-.14,0-.25-.07-.35-.22s-.14-.33-.14-.52c0-.55.23-.83.66-.83.14,0,.39,0,.72.07s.59.07.76.07c.27,0,.57,0,.86-.07.2-.02.35-.04.47-.04.16,0,.25.04.31.13s.12.28.18.57h0l.06-.13Z" style="fill: #3a7220;"/>
    <path d="M11.8,2.49c.18,0,.25.15.25.44v3.39c0,.39.06.57.18.57.02,0,.06,0,.14-.02.06,0,.12-.02.16-.02.25,0,.37.2.37.59,0,.52-.18.79-.53.79-.06,0-.23,0-.51-.07-.18,0-.37-.04-.59-.04-.1,0-.27,0-.49.04s-.37.04-.47.04c-.18,0-.29-.07-.41-.2s-.16-.33-.16-.52c0-.44.14-.63.43-.63l.23.07h.06c.1,0,.18-.2.18-.63v-1.81c0-.44-.06-.63-.16-.63,0,0-.08,0-.18.07h-.14c-.29,0-.43-.2-.43-.63,0-.22.06-.39.16-.55.1-.13.23-.2.41-.2.06,0,.18,0,.29.04.21.04.37.07.51.07.1,0,.23,0,.41-.04s.25-.04.27-.04h0v-.04ZM11.3,2.05c-.23,0-.41-.11-.59-.31s-.23-.44-.23-.72.08-.52.23-.72.35-.31.59-.31.43.11.59.31.23.44.23.72-.08.52-.23.72-.35.31-.59.31Z" style="fill: #3a7220;"/>
    <path d="M15.04,2.8v.55c.47-.68,1-1.01,1.58-1.01.62,0,1.07.28,1.33.87.14.31.21.76.21,1.42v1.68c0,.39.06.57.18.57.04,0,.08,0,.14-.04h.14c.27,0,.41.2.41.59,0,.52-.18.79-.55.79-.1,0-.23,0-.43-.04s-.33-.04-.43-.04c-.16,0-.31,0-.49.04s-.31.04-.41.04c-.35,0-.53-.22-.53-.68,0-.39.12-.61.37-.63.18,0,.23-.11.23-.28v-1.57c0-.44-.04-.74-.14-.92s-.23-.26-.47-.26c-.25,0-.45.11-.6.33s-.23.48-.23.81v1.18c0,.33,0,.55.04.61.02.07.1.13.21.13.21.04.33.24.33.61,0,.46-.16.72-.49.72-.1,0-.2,0-.33-.04-.23-.04-.39-.07-.51-.07s-.27,0-.49.04-.37.04-.49.04c-.37,0-.57-.26-.57-.74,0-.42.14-.63.43-.63.04,0,.1,0,.18.04s.1.04.14.04c.1,0,.16-.2.16-.63v-1.81c0-.44-.06-.63-.16-.63-.02,0-.06,0-.14.04-.06.02-.12.04-.16.04-.29,0-.43-.2-.43-.61,0-.22.06-.42.16-.55s.23-.22.39-.22c.04,0,.16,0,.31.07.1,0,.18.04.23.04.08,0,.2,0,.37-.04.18-.02.27-.04.29-.04.18,0,.23.11.23.33h0l-.04-.13Z" style="fill: #3a7220;"/>
    <path d="M23.69,4.85c0,.33-.04.52-.1.63s-.2.15-.37.15h-2.2c-.1,0-.18,0-.2.04s-.04.09-.04.2c0,.33.08.59.23.79.18.2.37.33.62.33s.51-.17.78-.52c.18-.24.37-.35.6-.35.18,0,.33.07.43.2.12.13.18.28.18.48,0,.44-.2.81-.57,1.11-.39.31-.86.46-1.4.46-.72,0-1.29-.26-1.72-.81s-.64-1.27-.64-2.16.21-1.64.64-2.21.98-.83,1.68-.83c.64,0,1.15.22,1.54.68.39.46.57,1.07.57,1.84h0l-.04-.02ZM20.82,4.28s0,.09.04.11.08.04.2.04h1.01s.14,0,.18-.04.04-.07.04-.13c0-.2-.06-.37-.21-.52-.14-.15-.29-.22-.49-.22-.23,0-.43.11-.59.35-.1.15-.14.28-.14.39h0l-.04.02Z" style="fill: #3a7220;"/>
    <path d="M26.95,4.26c0-.11.04-.22.1-.33-.14-.13-.29-.17-.47-.17-.27,0-.49.13-.64.42-.18.26-.25.63-.25,1.09s.1.85.27,1.14.41.44.7.44.51-.2.64-.61c.08-.24.16-.39.21-.46.08-.09.21-.13.41-.13s.37.07.51.24c.14.15.2.35.2.59,0,.5-.2.96-.6,1.33s-.88.57-1.44.57c-.7,0-1.29-.26-1.72-.81s-.64-1.27-.64-2.19.21-1.66.64-2.21,1.01-.81,1.76-.81c.53,0,.98.15,1.33.46s.53.7.53,1.2c0,.31-.08.55-.23.72-.16.2-.37.26-.6.26-.2,0-.37-.07-.51-.2s-.2-.31-.2-.52h0l.02-.02Z" style="fill: #3a7220;"/>
    <path d="M30.89,2.82v.96c.08-.39.18-.68.29-.85.27-.42.64-.61,1.11-.61.33,0,.6.13.84.39s.33.59.33.98c0,.31-.08.57-.21.76s-.33.31-.55.31c-.18,0-.31-.07-.43-.2s-.18-.31-.18-.5c0-.11.04-.26.12-.44h-.06c-.41,0-.68.26-.82.81-.1.44-.18.92-.18,1.46v.44c0,.26,0,.44.06.52.02.04.06.07.14.07.06,0,.14,0,.23-.04.1-.02.18-.04.21-.04.14,0,.25.07.33.17s.14.26.14.42c0,.22-.06.39-.18.55s-.27.22-.43.22c-.1,0-.25,0-.51-.07-.16,0-.33-.04-.57-.04s-.43,0-.6.04c-.29.04-.47.07-.53.07-.37,0-.57-.26-.57-.74,0-.42.14-.63.43-.63.04,0,.1,0,.18.04s.1.04.14.04c.1,0,.16-.2.16-.63v-1.81c0-.44-.06-.63-.16-.63-.02,0-.06,0-.14.04-.06.02-.12.04-.16.04-.29,0-.43-.2-.43-.61,0-.22.04-.42.14-.55s.21-.22.37-.22c.06,0,.14,0,.25.04.1.02.21.04.31.04.08,0,.18,0,.31-.04s.23-.04.31-.04c.2,0,.27.11.27.35h-.02l.02-.07Z" style="fill: #3a7220;"/>
    <path d="M37.72,8.35c-.51,0-.84-.24-1-.74-.43.5-.92.74-1.5.74-.47,0-.86-.15-1.13-.46s-.43-.72-.43-1.25c0-.79.27-1.29.82-1.53.23-.09.51-.17.82-.24.43-.09.72-.2.88-.31s.23-.28.23-.52c0-.17-.06-.33-.18-.44s-.27-.17-.43-.17c-.2,0-.29.07-.29.24v.2c0,.2-.06.39-.21.52s-.31.22-.53.22c-.23,0-.43-.09-.6-.26-.16-.17-.23-.39-.23-.68,0-.39.18-.72.51-.96s.82-.35,1.42-.35c.64,0,1.13.13,1.46.37.35.26.51.76.51,1.51v2.34c0,.24.04.35.14.35h.2c.14,0,.25.07.35.17s.14.26.14.44c0,.24-.1.46-.27.61s-.41.24-.68.24h0l.02-.04ZM36.41,5.92v-.24s-.31.13-.8.28c-.33.11-.51.26-.51.48,0,.35.18.52.49.52.53,0,.8-.35.8-1.03h0l.02-.02Z" style="fill: #3a7220;"/>
    <path d="M41.66,1.84s.02-.17.08-.28c-.06-.02-.12-.04-.18-.04-.29,0-.45.17-.45.52v.22c0,.13.06.22.2.22h.27c.35,0,.53.2.53.61s-.18.63-.51.63h-.29c-.14,0-.2.09-.2.28v2.67c0,.15.08.24.2.24h.18c.06,0,.14-.04.21-.04.29,0,.43.2.43.61,0,.2-.06.39-.16.52-.1.13-.23.2-.39.2,0,0-.2,0-.55-.07h-.53c-.25,0-.47,0-.62.04-.25.04-.43.07-.49.07-.18,0-.29-.07-.41-.2s-.16-.33-.16-.55c0-.42.16-.63.45-.63.04,0,.1,0,.18.04s.1.04.14.04c.1,0,.18-.2.18-.63v-2.25c0-.15-.04-.24-.08-.26h-.33c-.31,0-.49-.2-.49-.59,0-.44.18-.66.51-.66h.18c.1,0,.18,0,.2-.07.04-.04.04-.13.06-.31,0-.52.18-.94.49-1.22.31-.31.72-.46,1.25-.46.43,0,.78.11,1.05.33.27.22.39.5.39.87,0,.22-.06.42-.2.57s-.29.22-.51.22c-.18,0-.29-.07-.41-.15-.1-.11-.16-.24-.16-.42h0l-.06-.09Z" style="fill: #3a7220;"/>
    <path d="M44.49,4.02v1.16l-.04.74c0,.24,0,.35,0,.31,0,.44.12.68.35.68.21,0,.33-.2.33-.61v-.39c0-.39.18-.61.49-.61.37,0,.57.37.57,1.14,0,.59-.14,1.07-.43,1.4-.29.33-.68.5-1.19.5-1,0-1.5-.66-1.5-1.97,0-.2,0-.52.02-.94s.02-.74.02-.94v-.35c0-.2,0-.31-.04-.35s-.1-.07-.2-.07h-.14c-.12,0-.21-.07-.27-.15s-.1-.26-.1-.42.04-.33.12-.44.18-.2.27-.2h.18c.14,0,.23-.07.25-.15,0-.07.04-.15.04-.31v-.55c0-.26.06-.44.18-.55.12-.09.31-.15.6-.15.21,0,.35.04.43.11s.12.24.12.5v.61c0,.22,0,.35.06.39.04.07.12.07.25.07h.64c.35,0,.53.2.53.61s-.18.61-.49.61h-.74c-.14,0-.2.02-.23.07-.02.07-.04.13-.04.24h-.04Z" style="fill: #3a7220;"/>
    <path d="M51.38.42c.59,0,1.09.26,1.5.79v-.11c0-.42.18-.63.55-.63.18,0,.31.07.41.2s.16.31.16.52c0,.09,0,.24-.04.44-.04.31-.04.52-.04.68,0,.09,0,.24.04.44.02.2.04.33.04.44,0,.24-.06.42-.2.57-.14.13-.31.22-.53.22-.47,0-.68-.24-.66-.72v-.35c0-.24-.06-.46-.23-.61s-.39-.24-.64-.24c-.8,0-1.21.81-1.21,2.38,0,.83.1,1.42.29,1.81.2.37.51.57.94.57.27,0,.49-.07.64-.24.18-.15.25-.35.23-.61v-.39c0-.24.04-.42.18-.57.14-.13.29-.22.49-.22.25,0,.45.11.6.33.16.2.21.5.21.85,0,.72-.23,1.29-.68,1.75s-1.03.68-1.76.68c-.88,0-1.58-.35-2.09-1.05s-.76-1.66-.76-2.86.23-2.23.68-2.95c.47-.72,1.09-1.07,1.89-1.07h0l-.02-.02Z" style="fill: #3a7220;"/>
    <path d="M56.43,2.82v.96c.08-.39.18-.68.29-.85.27-.42.64-.61,1.11-.61.33,0,.6.13.84.39s.33.59.33.98c0,.31-.08.57-.21.76s-.33.31-.55.31c-.18,0-.31-.07-.43-.2s-.18-.31-.18-.5c0-.11.04-.26.12-.44h-.06c-.41,0-.68.26-.82.81-.1.44-.18.92-.18,1.46v.44c0,.26,0,.44.06.52.02.04.06.07.14.07.06,0,.14,0,.23-.04s.18-.04.21-.04c.14,0,.25.07.33.17s.14.26.14.42c0,.22-.06.39-.18.55s-.27.22-.43.22c-.1,0-.25,0-.51-.07-.16,0-.33-.04-.57-.04s-.43,0-.6.04c-.29.04-.47.07-.53.07-.37,0-.57-.26-.57-.74,0-.42.14-.63.43-.63.04,0,.1,0,.18.04s.1.04.14.04c.1,0,.16-.2.16-.63v-1.81c0-.44-.06-.63-.16-.63-.02,0-.06,0-.14.04-.06.02-.12.04-.16.04-.29,0-.43-.2-.43-.61,0-.22.04-.42.14-.55s.21-.22.37-.22c.06,0,.14,0,.25.04.1.02.21.04.31.04.08,0,.18,0,.31-.04s.23-.04.31-.04c.2,0,.27.11.27.35h-.02l.02-.07Z" style="fill: #3a7220;"/>
    <path d="M61.52,8.35c-.74,0-1.33-.26-1.74-.79s-.6-1.27-.6-2.21.2-1.68.6-2.21c.41-.52.98-.81,1.72-.81s1.29.26,1.7.79.62,1.25.62,2.16-.2,1.7-.6,2.25-.96.81-1.68.81h-.02ZM61.48,3.69c-.27,0-.47.13-.62.44-.16.28-.23.68-.23,1.2s.08.92.23,1.2c.16.28.37.44.64.44.57,0,.84-.55.84-1.62s-.29-1.62-.86-1.62h0v-.04Z" style="fill: #3a7220;"/>
    <path d="M66.11,2.32c.47,0,.86.15,1.17.48.02-.33.2-.46.49-.46s.47.13.47.39c0,.09,0,.2-.04.31,0,.13-.04.26-.04.39v.48c0,.39-.16.61-.49.61-.23,0-.43-.13-.6-.44-.2-.35-.45-.52-.76-.52-.35,0-.53.15-.53.46,0,.15.06.26.18.33.12.07.41.15.9.26.41.09.7.2.88.31.2.11.35.26.47.48.16.26.23.59.23.94,0,.57-.18,1.05-.53,1.42-.35.39-.8.57-1.33.57s-1.01-.2-1.44-.63c0,.37-.16.55-.45.55-.33,0-.49-.17-.49-.5v-1.31c0-.33.18-.5.51-.5.18,0,.29.02.37.09.08.07.18.17.27.35.16.28.29.46.41.55s.31.13.57.13c.43,0,.64-.17.64-.5,0-.24-.18-.39-.53-.48l-.53-.13c-.43-.11-.74-.22-.92-.33s-.31-.28-.43-.52c-.1-.24-.16-.52-.16-.83,0-.57.16-1.03.45-1.38.29-.35.68-.52,1.17-.52h.04l.04-.02Z" style="fill: #3a7220;"/>
    <path d="M70.73,2.32c.47,0,.86.15,1.17.48.02-.33.2-.46.49-.46s.47.13.47.39c0,.09,0,.2-.04.31,0,.13-.04.26-.04.39v.48c0,.39-.16.61-.49.61-.23,0-.43-.13-.6-.44-.2-.35-.45-.52-.76-.52-.35,0-.53.15-.53.46,0,.15.06.26.18.33.12.07.41.15.9.26.41.09.7.2.88.31.2.11.35.26.47.48.16.26.23.59.23.94,0,.57-.18,1.05-.53,1.42-.35.39-.8.57-1.33.57s-1.01-.2-1.44-.63c0,.37-.16.55-.45.55-.33,0-.49-.17-.49-.5v-1.31c0-.33.18-.5.51-.5.18,0,.29.02.37.09.08.07.18.17.27.35.16.28.29.46.41.55s.31.13.57.13c.43,0,.64-.17.64-.5,0-.24-.18-.39-.53-.48l-.53-.13c-.43-.11-.74-.22-.92-.33s-.31-.28-.43-.52c-.1-.24-.16-.52-.16-.83,0-.57.16-1.03.45-1.38s.68-.52,1.17-.52h.04l.04-.02Z" style="fill: #3a7220;"/>
    <path d="M75.41,2.82v.96c.08-.39.18-.68.29-.85.27-.42.64-.61,1.11-.61.33,0,.6.13.84.39s.33.59.33.98c0,.31-.08.57-.21.76s-.33.31-.55.31c-.18,0-.31-.07-.43-.2s-.18-.31-.18-.5c0-.11.04-.26.12-.44h-.06c-.41,0-.68.26-.82.81-.1.44-.18.92-.18,1.46v.44c0,.26,0,.44.06.52.02.04.06.07.14.07.06,0,.14,0,.23-.04s.18-.04.21-.04c.14,0,.25.07.33.17.1.11.14.26.14.42,0,.22-.06.39-.18.55s-.27.22-.43.22c-.1,0-.25,0-.51-.07-.16,0-.33-.04-.57-.04s-.43,0-.6.04c-.29.04-.47.07-.53.07-.37,0-.57-.26-.57-.74,0-.42.14-.63.43-.63.04,0,.1,0,.18.04s.1.04.14.04c.1,0,.16-.2.16-.63v-1.81c0-.44-.06-.63-.16-.63-.02,0-.06,0-.14.04-.06.02-.12.04-.16.04-.29,0-.43-.2-.43-.61,0-.22.04-.42.14-.55s.21-.22.37-.22c.06,0,.14,0,.25.04.1.02.21.04.31.04.08,0,.18,0,.31-.04s.23-.04.31-.04c.2,0,.27.11.27.35h-.02l.02-.07Z" style="fill: #3a7220;"/>
    <path d="M80.51,8.35c-.74,0-1.33-.26-1.74-.79s-.6-1.27-.6-2.21.2-1.68.6-2.21c.41-.52.98-.81,1.72-.81s1.29.26,1.7.79.62,1.25.62,2.16-.2,1.7-.6,2.25-.96.81-1.68.81h-.02ZM80.47,3.69c-.27,0-.47.13-.62.44-.16.28-.23.68-.23,1.2s.08.92.23,1.2.37.44.64.44c.57,0,.84-.55.84-1.62s-.29-1.62-.86-1.62h0v-.04Z" style="fill: #3a7220;"/>
    <path d="M87.36,8.35c-.51,0-.84-.24-1-.74-.43.5-.92.74-1.5.74-.47,0-.86-.15-1.13-.46-.29-.31-.43-.72-.43-1.25,0-.79.27-1.29.82-1.53.23-.09.51-.17.82-.24.43-.09.72-.2.88-.31s.23-.28.23-.52c0-.17-.06-.33-.18-.44s-.27-.17-.43-.17c-.2,0-.29.07-.29.24v.2c0,.2-.06.39-.21.52s-.31.22-.53.22c-.23,0-.43-.09-.6-.26-.16-.17-.23-.39-.23-.68,0-.39.18-.72.51-.96s.82-.35,1.42-.35c.64,0,1.13.13,1.46.37.35.26.51.76.51,1.51v2.34c0,.24.04.35.14.35h.2c.14,0,.25.07.35.17s.14.26.14.44c0,.24-.1.46-.27.61s-.41.24-.68.24h0l.02-.04ZM86.05,5.92v-.24s-.31.13-.8.28c-.33.11-.51.26-.51.48,0,.35.18.52.49.52.53,0,.8-.35.8-1.03h0l.02-.02Z" style="fill: #3a7220;"/>
    <path d="M90.48,2.4c.47,0,.88.22,1.27.68v-.81c0-.26-.08-.39-.23-.39h-.21c-.08.02-.16.04-.23.04-.12,0-.21-.07-.29-.17s-.12-.26-.12-.46c0-.48.2-.72.62-.72h.29c.23.02.41.04.49.04h.68c.16,0,.25.04.31.13.06.09.08.24.08.48v5.14c0,.39.06.57.18.57.04,0,.08,0,.14-.04h.14c.25,0,.39.2.39.57,0,.24-.04.42-.14.57s-.21.22-.37.22h-.06l-.31-.07h-.7c-.16,0-.23.04-.23.04-.2,0-.27-.13-.27-.39v-.42c-.31.68-.78,1.01-1.4,1.01-.57,0-1.01-.28-1.37-.85-.37-.57-.53-1.29-.53-2.14s.18-1.6.53-2.14.82-.81,1.39-.81h0l-.02-.07ZM90.81,3.82c-.23,0-.41.13-.55.39s-.21.61-.23,1.07v.15c0,.46.06.81.21,1.07s.33.39.57.39c.27,0,.49-.13.64-.44.18-.28.25-.68.25-1.14s-.08-.83-.23-1.11c-.18-.28-.37-.42-.64-.42h0l-.02.02Z" style="fill: #3a7220;"/>
    <path d="M96.14,2.32c.47,0,.86.15,1.17.48.02-.33.2-.46.49-.46s.47.13.47.39c0,.09,0,.2-.04.31,0,.13-.04.26-.04.39v.48c0,.39-.16.61-.49.61-.23,0-.43-.13-.6-.44-.2-.35-.45-.52-.76-.52-.35,0-.53.15-.53.46,0,.15.06.26.18.33.12.07.41.15.9.26.41.09.7.2.88.31.2.11.35.26.47.48.16.26.23.59.23.94,0,.57-.18,1.05-.53,1.42-.35.39-.8.57-1.33.57s-1.01-.2-1.44-.63c0,.37-.16.55-.45.55-.33,0-.49-.17-.49-.5v-1.31c0-.33.18-.5.51-.5.18,0,.29.02.37.09.08.07.18.17.27.35.16.28.29.46.41.55s.31.13.57.13c.43,0,.64-.17.64-.5,0-.24-.18-.39-.53-.48l-.53-.13c-.43-.11-.74-.22-.92-.33s-.31-.28-.43-.52c-.1-.24-.16-.52-.16-.83,0-.57.16-1.03.45-1.38s.68-.52,1.17-.52h.04l.04-.02Z" style="fill: #3a7220;"/>
  </g>
  <polygon points="56.48 13.03 51.6 17.05 59.66 19.9 56.48 13.03" style="fill: #ad8e5e; stroke: #231f20; stroke-linecap: round; stroke-miterlimit: 10; stroke-width: .75px;"/>
  <g>
    <path d="M16.08,24.22l.15.04.09-.05-.15-.04.5-.26c.11.01.26.05.38.08,3.85.77,7.88,1.6,12,2.45.24.05.5.11.71.15l-1.79.97h-.03c-.07-.01-.63-.18-.77-.22-.07-.02-.06-.01-.09-.02-.23-.06-.56-.18-.77-.22l-.27.14,1.52.46.09.04-1.85.96c-.13-.04-.17-.07-.24-.09-.34-.14-.73-.29-1.01-.42-3.11-1.26-6.07-2.49-9-3.68l.51-.27h0ZM16.56,24.36l.33.1.1-.05-.33-.1-.1.05ZM17.4,24.53l-.11.06.48.14.11-.06-.48-.14ZM18.95,25.09l.15-.08c-.13-.04-.15-.04-.22-.05-.13-.04-.28-.08-.41-.12h-.05s-.16.04-.1.06l.63.19h0ZM19.93,25.25l-.16.09.98.29.17-.09-.99-.29h0ZM22.24,25.92l-.2.11,1.69.51.24-.12c-.31-.08-.63-.19-.92-.27-.07-.02-.05,0-.12-.02-.11-.03-.65-.19-.68-.2h0Z"/>
    <path d="M25.26,28.97c-.06-.01-.34-.15-.38-.17-3.29-1.46-6.35-2.85-9.44-4.22l.05-.04c.09.04.21.09.3.12,2.88,1.23,5.74,2.47,8.69,3.74.15.06,1.05.43,1.02.45l-.24.12h0Z"/>
    <path d="M30.15,26.43c-.6-.11-1.25-.23-1.88-.36-3.63-.7-7.21-1.39-10.7-2.06-.07-.01-.77-.14-.8-.16l.11-.03c.22.05.41.07.62.11,3.92.71,7.98,1.46,12.15,2.22.25.05.48.08.76.14l-.24.13h0Z"/>
  </g>
  <polygon points="34.13 44.69 21.77 34.63 75.79 25.44 77.42 25.63 34.13 44.69" style="fill: #263816; stroke: #231f20; stroke-linecap: round; stroke-miterlimit: 10;"/>
  <path d="M46.05,30.56c-.29-.04-.5-.27-.81-.27l.52-4.02c1.9.85.82-.65,1.17-1.67.11-.31.45-.53.55-.86l.19-.07c.85.05,1.68.05,2.5.29l-.06,2.58,1.14.2.55,2.9-.46.98s-1.01-.09-1.12-.12c-.06-.02-.05-.09-.04-.13-.3.16-.12.37-.13.64-.03.65-.1,1.33-.13,1.98-.02.42.12,1.29-.16,1.54-.37.33-1.03.28-1.46.11-.18-.08-.25-.23-.5-.29-.12-.03-.69-.04-.73-.09v-3.68c-.33-.03-.69.04-1.01,0h-.01Z" style="fill: #fff;"/>
</svg>