<?xml version="1.0" encoding="UTF-8"?>
<svg id="Layer_1" data-name="Layer 1" xmlns="http://www.w3.org/2000/svg" viewBox="0 0 101.79 61.26">
  <g>
    <path d="M18.91,26.87l.87.29.49-.28-.87-.29,2.81-1.6c.62.08,1.54.36,2.26.53,22.25,5.29,44.9,10.81,67.49,16.29,1.26.31,2.67.68,3.85.93l-9.43,5.68h-.15c-.38-.07-3.4-1.13-4.19-1.38-.41-.13-.34-.06-.53-.12-1.25-.38-3.07-1.09-4.25-1.38l-1.46.83,8.34,2.82.5.21-9.8,5.59c-.72-.23-.96-.43-1.3-.58-1.9-.85-4-1.74-5.58-2.52-17.5-7.84-34.57-15.6-51.88-23.39l2.86-1.63h0ZM21.71,27.83l1.96.65.56-.32-1.96-.65-.56.32ZM26.65,28.95l-.62.36,2.83.95.62-.36-2.83-.95ZM35.71,32.64l.82-.47c-.74-.28-.87-.24-1.25-.36-.75-.24-1.6-.55-2.38-.8l-.29-.07c-.22.02-.9.28-.53.44l3.63,1.25h0ZM41.35,33.75l-.89.51,5.62,1.91.95-.54-5.69-1.87ZM54.5,38.06l-1.12.64,9.5,3.24,1.28-.73c-1.72-.51-3.53-1.18-5.15-1.7-.42-.13-.27-.03-.69-.17-.62-.19-3.66-1.25-3.82-1.28h0Z"/>
    <path d="M71.84,56.7c-.34-.07-1.9-.92-2.12-1.02-18.43-8.93-36.15-17.72-54.43-26.63l.28-.26c.55.24,1.28.57,1.78.8,17.03,7.96,33.49,15.83,50.09,23.68.84.4,5.79,2.64,5.67,2.71l-1.27.72h0Z"/>
    <path d="M97.83,41.88c-3.24-.69-6.7-1.5-10.16-2.32-19.95-4.54-40.11-9.18-60.22-13.81-.39-.09-4.53-.99-4.69-1.08l.61-.16c1.32.32,2.4.52,3.6.78,22.57,4.93,45.36,9.95,68.09,14.95,1.33.29,2.56.51,4.07.9l-1.3.74h0Z"/>
  </g>
  <polygon points="74.74 18.51 47.09 20.48 39.68 11.9 66.42 1.26 74.74 18.51" style="fill: #724a26; stroke: #231f20; stroke-linecap: round; stroke-miterlimit: 10;"/>
  <polygon points="34.2 14.02 53.09 6.93 53.24 31.11 34.22 27.15 34.2 14.02" style="fill: #c1a48a; stroke: #231f20; stroke-linecap: round; stroke-miterlimit: 10;"/>
  <polygon points="72.07 14.32 53.16 7 53.16 31.11 72.07 28.09 72.07 14.32" style="fill: #c1a48a; stroke: #231f20; stroke-linecap: round; stroke-miterlimit: 10;"/>
  <polygon points="26.17 20.48 51.53 14.82 66.42 1.26 37.69 11.18 26.17 20.48" style="fill: #724a26; stroke: #231f20; stroke-linecap: round; stroke-miterlimit: 10;"/>
  <g>
    <path d="M32.2,58.02l.39,1.88.4-1.81c.03-.15.07-.25.11-.31.04-.06.1-.09.18-.09.07,0,.17,0,.31.03s.24.03.32.03.26-.01.55-.04c.09,0,.15,0,.19,0,.1,0,.19.03.25.1.06.07.09.16.09.28,0,.09-.02.18-.07.24-.05.06-.11.1-.18.1-.03,0-.07,0-.12-.02-.05-.01-.09-.02-.11-.02-.09,0-.12.12-.12.34v1.43c0,.23.04.35.12.35.02,0,.06,0,.11-.02s.09-.02.11-.02c.07,0,.13.03.18.1s.07.15.07.24c0,.12-.03.21-.09.28-.06.07-.14.1-.25.1-.06,0-.16,0-.3-.03-.09-.01-.19-.02-.28-.02-.06,0-.15,0-.26.03-.12.02-.2.03-.26.03-.09,0-.17-.03-.22-.1s-.09-.16-.09-.28c0-.21.06-.32.19-.32.02,0,.03,0,.04,0h.03s.02,0,.02,0c.05,0,.08-.04.09-.11,0-.03,0-.09,0-.18v-1.94l-.65,2.54c-.05.22-.15.33-.27.33h-.3c-.12,0-.21-.1-.26-.29l-.62-2.57v1.94c0,.16.02.25.04.28,0,0,.03.02.05.02,0,0,.02,0,.03,0h.03s.02,0,.04,0c.12,0,.19.1.19.31,0,.12-.03.21-.09.28s-.13.1-.22.1c-.04,0-.1,0-.17-.02-.09-.01-.14-.02-.16-.03-.07,0-.14,0-.22,0-.1,0-.19,0-.26.02l-.29.04c-.1,0-.17-.03-.24-.11s-.09-.16-.09-.28c0-.1.02-.18.07-.24.05-.06.11-.09.18-.09.02,0,.06,0,.11.02.05.01.09.02.11.02.06,0,.1-.04.12-.13,0-.03,0-.11,0-.21v-1.43c0-.11,0-.18,0-.21-.02-.09-.05-.13-.12-.13-.02,0-.06,0-.11.02-.05.01-.09.02-.11.02-.07,0-.13-.03-.18-.1s-.07-.15-.07-.24c0-.25.12-.38.34-.38.07,0,.2,0,.37.03s.3.03.39.03c.14,0,.29,0,.44-.03.1-.01.18-.02.24-.02.08,0,.13.02.16.06.03.04.06.13.09.26h0Z" style="fill: #3a7220;"/>
    <path d="M36.19,58.57c.09,0,.13.07.13.2v1.55c0,.18.03.26.09.26.01,0,.03,0,.07-.01.03,0,.06-.01.08-.01.13,0,.19.09.19.27,0,.24-.09.36-.27.36-.03,0-.12,0-.26-.03-.09,0-.19-.02-.3-.02-.05,0-.14,0-.25.02s-.19.02-.24.02c-.09,0-.15-.03-.21-.09s-.08-.15-.08-.24c0-.2.07-.29.22-.29l.12.03s.02,0,.03,0c.05,0,.09-.09.09-.29v-.83c0-.2-.03-.29-.08-.29,0,0-.04,0-.09.03-.03,0-.05,0-.07,0-.15,0-.22-.09-.22-.29,0-.1.03-.18.08-.25.05-.06.12-.09.21-.09.03,0,.09,0,.15.02.11.02.19.03.26.03.05,0,.12,0,.21-.02s.13-.02.14-.02h0ZM35.93,58.37c-.12,0-.21-.05-.3-.14-.09-.09-.12-.2-.12-.33s.04-.24.12-.33.18-.14.3-.14.22.05.3.14.12.2.12.33-.04.24-.12.33-.18.14-.3.14Z" style="fill: #3a7220;"/>
    <path d="M37.85,58.71v.25c.24-.31.51-.46.81-.46.32,0,.55.13.68.4.07.14.11.35.11.65v.77c0,.18.03.26.09.26.02,0,.04,0,.07-.02.02,0,.04,0,.07,0,.14,0,.21.09.21.27,0,.24-.09.36-.28.36-.05,0-.12,0-.22-.02s-.17-.02-.22-.02c-.08,0-.16,0-.25.02s-.16.02-.21.02c-.18,0-.27-.1-.27-.31,0-.18.06-.28.19-.29.09,0,.12-.05.12-.13v-.72c0-.2-.02-.34-.07-.42s-.12-.12-.24-.12c-.13,0-.23.05-.31.15s-.12.22-.12.37v.54c0,.15,0,.25.02.28.01.03.05.06.11.06.11.02.17.11.17.28,0,.21-.08.33-.25.33-.05,0-.1,0-.17-.02-.12-.02-.2-.03-.26-.03s-.14,0-.25.02-.19.02-.25.02c-.19,0-.29-.12-.29-.34,0-.19.07-.29.22-.29.02,0,.05,0,.09.02s.05.02.07.02c.05,0,.08-.09.08-.29v-.83c0-.2-.03-.29-.08-.29-.01,0-.03,0-.07.02-.03.01-.06.02-.08.02-.15,0-.22-.09-.22-.28,0-.1.03-.19.08-.25s.12-.1.2-.1c.02,0,.08,0,.16.03.05,0,.09.02.12.02.04,0,.1,0,.19-.02.09-.01.14-.02.15-.02.09,0,.12.05.12.15h0Z" style="fill: #3a7220;"/>
    <path d="M42.28,59.65c0,.15-.02.24-.05.29s-.1.07-.19.07h-1.13c-.05,0-.09,0-.1.02s-.02.04-.02.09c0,.15.04.27.12.36.09.09.19.15.32.15s.26-.08.4-.24c.09-.11.19-.16.31-.16.09,0,.17.03.22.09.06.06.09.13.09.22,0,.2-.1.37-.29.51-.2.14-.44.21-.72.21-.37,0-.66-.12-.88-.37-.22-.25-.33-.58-.33-.99s.11-.75.33-1.01c.22-.26.5-.38.86-.38.33,0,.59.1.79.31.2.21.29.49.29.84h0ZM40.81,59.39s0,.04.02.05.04.02.1.02h.52s.07,0,.09-.02.02-.03.02-.06c0-.09-.03-.17-.11-.24-.07-.07-.15-.1-.25-.1-.12,0-.22.05-.3.16-.05.07-.07.13-.07.18h0Z" style="fill: #3a7220;"/>
    <path d="M43.95,59.38c0-.05.02-.1.05-.15-.07-.06-.15-.08-.24-.08-.14,0-.25.06-.33.19-.09.12-.13.29-.13.5s.05.39.14.52c.09.13.21.2.36.2s.26-.09.33-.28c.04-.11.08-.18.11-.21.04-.04.11-.06.21-.06.1,0,.19.03.26.11.07.07.1.16.1.27,0,.23-.1.44-.31.61s-.45.26-.74.26c-.36,0-.66-.12-.88-.37-.22-.25-.33-.58-.33-1s.11-.76.33-1.01.52-.37.9-.37c.27,0,.5.07.68.21s.27.32.27.55c0,.14-.04.25-.12.33-.08.09-.19.12-.31.12-.1,0-.19-.03-.26-.09-.07-.06-.1-.14-.1-.24h0Z" style="fill: #3a7220;"/>
    <path d="M45.97,58.72v.44c.04-.18.09-.31.15-.39.14-.19.33-.28.57-.28.17,0,.31.06.43.18.12.12.17.27.17.45,0,.14-.04.26-.11.35-.07.09-.17.14-.28.14-.09,0-.16-.03-.22-.09-.06-.06-.09-.14-.09-.23,0-.05.02-.12.06-.2h-.03c-.21,0-.35.12-.42.37-.05.2-.09.42-.09.67v.2c0,.12,0,.2.03.24.01.02.03.03.07.03.03,0,.07,0,.12-.02.05-.01.09-.02.11-.02.07,0,.13.03.17.08s.07.12.07.19c0,.1-.03.18-.09.25-.06.07-.14.1-.22.1-.05,0-.13,0-.26-.03-.08,0-.17-.02-.29-.02s-.22,0-.31.02c-.15.02-.24.03-.27.03-.19,0-.29-.12-.29-.34,0-.19.07-.29.22-.29.02,0,.05,0,.09.02s.05.02.07.02c.05,0,.08-.09.08-.29v-.83c0-.2-.03-.29-.08-.29-.01,0-.03,0-.07.02-.03.01-.06.02-.08.02-.15,0-.22-.09-.22-.28,0-.1.02-.19.07-.25.05-.06.11-.1.19-.1.03,0,.07,0,.13.02.05.01.11.02.16.02.04,0,.09,0,.16-.02s.12-.02.16-.02c.1,0,.14.05.14.16h-.01Z" style="fill: #3a7220;"/>
    <path d="M49.47,61.25c-.26,0-.43-.11-.51-.34-.22.23-.47.34-.77.34-.24,0-.44-.07-.58-.21s-.22-.33-.22-.57c0-.36.14-.59.42-.7.12-.04.26-.08.42-.11.22-.04.37-.09.45-.14s.12-.13.12-.24c0-.08-.03-.15-.09-.2-.06-.05-.14-.08-.22-.08-.1,0-.15.03-.15.11,0,.03,0,.05,0,.07v.02c0,.09-.03.18-.11.24s-.16.1-.27.1c-.12,0-.22-.04-.31-.12-.08-.08-.12-.18-.12-.31,0-.18.09-.33.26-.44s.42-.16.73-.16c.33,0,.58.06.75.17.18.12.26.35.26.69v1.07c0,.11.02.16.07.16.02,0,.05,0,.07,0,0,0,.02,0,.03,0,.07,0,.13.03.18.08s.07.12.07.2c0,.11-.05.21-.14.28s-.21.11-.35.11h0ZM48.8,60.14v-.11s-.16.06-.41.13c-.17.05-.26.12-.26.22,0,.16.09.24.25.24.27,0,.41-.16.41-.47h0Z" style="fill: #3a7220;"/>
    <path d="M51.49,58.27s.01-.08.04-.13c-.03-.01-.06-.02-.09-.02-.15,0-.23.08-.23.24v.1c0,.06.03.1.1.1h.14c.18,0,.27.09.27.28s-.09.29-.26.29h-.15c-.07,0-.1.04-.1.13v1.04c0,.11,0,.17,0,.18,0,.07.04.11.1.11.01,0,.04,0,.09,0,.03,0,.07-.02.11-.02.15,0,.22.09.22.28,0,.09-.03.18-.08.24-.05.06-.12.09-.2.09,0,0-.1,0-.28-.03-.06,0-.15,0-.27,0-.13,0-.24,0-.32.02-.13.02-.22.03-.25.03-.09,0-.15-.03-.21-.09s-.08-.15-.08-.25c0-.19.08-.29.23-.29.02,0,.05,0,.09.02s.05.02.07.02c.05,0,.09-.09.09-.29v-1.03c0-.07-.02-.11-.04-.12-.01,0-.03,0-.06,0h-.11c-.16,0-.25-.09-.25-.27,0-.2.09-.3.26-.3h.09c.05,0,.09,0,.1-.03.02-.02.02-.06.03-.14,0-.24.09-.43.25-.56.16-.14.37-.21.64-.21.22,0,.4.05.54.15.14.1.2.23.2.4,0,.1-.03.19-.1.26-.07.07-.15.1-.26.1-.09,0-.15-.03-.21-.07-.05-.05-.08-.11-.08-.19h0Z" style="fill: #3a7220;"/>
    <path d="M52.94,59.27v.53l-.02.34c0,.11,0,.16,0,.14,0,.2.06.31.18.31.11,0,.17-.09.17-.28,0-.03,0-.05,0-.06v-.07s0-.04,0-.05c0-.18.09-.28.25-.28.19,0,.29.17.29.52,0,.27-.07.49-.22.64-.15.15-.35.23-.61.23-.51,0-.77-.3-.77-.9,0-.09,0-.24.01-.43s.01-.34.01-.43v-.16c0-.09,0-.14-.02-.16-.02-.02-.05-.03-.1-.03h-.07c-.06,0-.11-.03-.14-.07s-.05-.12-.05-.19.02-.15.06-.2.09-.09.14-.09h.09c.07,0,.12-.03.13-.07,0-.03.02-.07.02-.14v-.25c0-.12.03-.2.09-.25.06-.04.16-.07.31-.07.11,0,.18.02.22.05s.06.11.06.23v.28c0,.1,0,.16.03.18.02.03.06.03.13.03h.33c.18,0,.27.09.27.28s-.09.28-.25.28h-.38c-.07,0-.1.01-.12.03-.01.03-.02.06-.02.11h-.01Z" style="fill: #3a7220;"/>
    <path d="M56.47,57.62c.3,0,.56.12.77.36,0,0,0-.03,0-.05,0-.19.09-.29.28-.29.09,0,.16.03.21.09s.08.14.08.24c0,.04,0,.11-.02.2-.02.14-.02.24-.02.31,0,.04,0,.11.02.2.01.09.02.15.02.2,0,.11-.03.19-.1.26-.07.06-.16.1-.27.1-.24,0-.35-.11-.34-.33v-.16c0-.11-.03-.21-.12-.28s-.2-.11-.33-.11c-.41,0-.62.37-.62,1.09,0,.38.05.65.15.83.1.17.26.26.48.26.14,0,.25-.03.33-.11.09-.07.13-.16.12-.28v-.18c0-.11.02-.19.09-.26.07-.06.15-.1.25-.1.13,0,.23.05.31.15.08.09.11.23.11.39,0,.33-.12.59-.35.8-.23.21-.53.31-.9.31-.45,0-.81-.16-1.07-.48s-.39-.76-.39-1.31.12-1.02.35-1.35c.24-.33.56-.49.97-.49h0Z" style="fill: #3a7220;"/>
    <path d="M59.06,58.72v.44c.04-.18.09-.31.15-.39.14-.19.33-.28.57-.28.17,0,.31.06.43.18.12.12.17.27.17.45,0,.14-.04.26-.11.35-.07.09-.17.14-.28.14-.09,0-.16-.03-.22-.09-.06-.06-.09-.14-.09-.23,0-.05.02-.12.06-.2h-.03c-.21,0-.35.12-.42.37-.05.2-.09.42-.09.67v.2c0,.12,0,.2.03.24.01.02.03.03.07.03.03,0,.07,0,.12-.02s.09-.02.11-.02c.07,0,.13.03.17.08s.07.12.07.19c0,.1-.03.18-.09.25-.06.07-.14.1-.22.1-.05,0-.13,0-.26-.03-.08,0-.17-.02-.29-.02s-.22,0-.31.02c-.15.02-.24.03-.27.03-.19,0-.29-.12-.29-.34,0-.19.07-.29.22-.29.02,0,.05,0,.09.02s.05.02.07.02c.05,0,.08-.09.08-.29v-.83c0-.2-.03-.29-.08-.29-.01,0-.03,0-.07.02-.03.01-.06.02-.08.02-.15,0-.22-.09-.22-.28,0-.1.02-.19.07-.25s.11-.1.19-.1c.03,0,.07,0,.13.02.05.01.11.02.16.02.04,0,.09,0,.16-.02s.12-.02.16-.02c.1,0,.14.05.14.16h-.01Z" style="fill: #3a7220;"/>
    <path d="M61.67,61.25c-.38,0-.68-.12-.89-.36-.21-.24-.31-.58-.31-1.01s.1-.77.31-1.01c.21-.24.5-.37.88-.37s.66.12.87.36.32.57.32.99-.1.78-.31,1.03-.49.37-.86.37h0ZM61.65,59.12c-.14,0-.24.06-.32.2-.08.13-.12.31-.12.55s.04.42.12.55c.08.13.19.2.33.2.29,0,.43-.25.43-.74s-.15-.74-.44-.74h0Z" style="fill: #3a7220;"/>
    <path d="M64.02,58.49c.24,0,.44.07.6.22.01-.15.1-.21.25-.21s.24.06.24.18c0,.04,0,.09-.02.14,0,.06-.02.12-.02.18,0,0,0,.04,0,.08v.14c0,.18-.08.28-.25.28-.12,0-.22-.06-.31-.2-.1-.16-.23-.24-.39-.24-.18,0-.27.07-.27.21,0,.07.03.12.09.15.06.03.21.07.46.12.21.04.36.09.45.14.1.05.18.12.24.22.08.12.12.27.12.43,0,.26-.09.48-.27.65-.18.18-.41.26-.68.26s-.52-.09-.74-.29c0,.17-.08.25-.23.25-.17,0-.25-.08-.25-.23,0-.03,0-.09,0-.16s0-.12,0-.16c0-.03,0-.08,0-.14,0-.06,0-.11,0-.14,0-.15.09-.23.26-.23.09,0,.15.01.19.04.04.03.09.08.14.16.08.13.15.21.21.25s.16.06.29.06c.22,0,.33-.08.33-.23,0-.11-.09-.18-.27-.22l-.27-.06c-.22-.05-.38-.1-.47-.15s-.16-.13-.22-.24c-.05-.11-.08-.24-.08-.38,0-.26.08-.47.23-.63.15-.16.35-.24.6-.24h.02Z" style="fill: #3a7220;"/>
    <path d="M66.39,58.49c.24,0,.44.07.6.22.01-.15.1-.21.25-.21s.24.06.24.18c0,.04,0,.09-.02.14,0,.06-.02.12-.02.18,0,0,0,.04,0,.08v.14c0,.18-.08.28-.25.28-.12,0-.22-.06-.31-.2-.1-.16-.23-.24-.39-.24-.18,0-.27.07-.27.21,0,.07.03.12.09.15.06.03.21.07.46.12.21.04.36.09.45.14.1.05.18.12.24.22.08.12.12.27.12.43,0,.26-.09.48-.27.65-.18.18-.41.26-.68.26s-.52-.09-.74-.29c0,.17-.08.25-.23.25-.17,0-.25-.08-.25-.23,0-.03,0-.09,0-.16s0-.12,0-.16c0-.03,0-.08,0-.14,0-.06,0-.11,0-.14,0-.15.09-.23.26-.23.09,0,.15.01.19.04.04.03.09.08.14.16.08.13.15.21.21.25s.16.06.29.06c.22,0,.33-.08.33-.23,0-.11-.09-.18-.27-.22l-.27-.06c-.22-.05-.38-.1-.47-.15s-.16-.13-.22-.24c-.05-.11-.08-.24-.08-.38,0-.26.08-.47.23-.63.15-.16.35-.24.6-.24h.02Z" style="fill: #3a7220;"/>
    <path d="M68.79,58.72v.44c.04-.18.09-.31.15-.39.14-.19.33-.28.57-.28.17,0,.31.06.43.18.12.12.17.27.17.45,0,.14-.04.26-.11.35-.07.09-.17.14-.28.14-.09,0-.16-.03-.22-.09-.06-.06-.09-.14-.09-.23,0-.05.02-.12.06-.2h-.03c-.21,0-.35.12-.42.37-.05.2-.09.42-.09.67v.2c0,.12,0,.2.03.24.01.02.03.03.07.03.03,0,.07,0,.12-.02s.09-.02.11-.02c.07,0,.13.03.17.08.05.05.07.12.07.19,0,.1-.03.18-.09.25s-.14.1-.22.1c-.05,0-.13,0-.26-.03-.08,0-.17-.02-.29-.02s-.22,0-.31.02c-.15.02-.24.03-.27.03-.19,0-.29-.12-.29-.34,0-.19.07-.29.22-.29.02,0,.05,0,.09.02s.05.02.07.02c.05,0,.08-.09.08-.29v-.83c0-.2-.03-.29-.08-.29-.01,0-.03,0-.07.02-.03.01-.06.02-.08.02-.15,0-.22-.09-.22-.28,0-.1.02-.19.07-.25s.11-.1.19-.1c.03,0,.07,0,.13.02.05.01.11.02.16.02.04,0,.09,0,.16-.02s.12-.02.16-.02c.1,0,.14.05.14.16h-.01Z" style="fill: #3a7220;"/>
    <path d="M71.4,61.25c-.38,0-.68-.12-.89-.36-.21-.24-.31-.58-.31-1.01s.1-.77.31-1.01c.21-.24.5-.37.88-.37s.66.12.87.36.32.57.32.99-.1.78-.31,1.03c-.21.25-.49.37-.86.37h0ZM71.38,59.12c-.14,0-.24.06-.32.2-.08.13-.12.31-.12.55s.04.42.12.55c.08.13.19.2.33.2.29,0,.43-.25.43-.74s-.15-.74-.44-.74h0Z" style="fill: #3a7220;"/>
    <path d="M74.91,61.25c-.26,0-.43-.11-.51-.34-.22.23-.47.34-.77.34-.24,0-.44-.07-.58-.21-.15-.14-.22-.33-.22-.57,0-.36.14-.59.42-.7.12-.04.26-.08.42-.11.22-.04.37-.09.45-.14s.12-.13.12-.24c0-.08-.03-.15-.09-.2-.06-.05-.14-.08-.22-.08-.1,0-.15.03-.15.11,0,.03,0,.05,0,.07v.02c0,.09-.03.18-.11.24s-.16.1-.27.1c-.12,0-.22-.04-.31-.12-.08-.08-.12-.18-.12-.31,0-.18.09-.33.26-.44s.42-.16.73-.16c.33,0,.58.06.75.17.18.12.26.35.26.69v1.07c0,.11.02.16.07.16.02,0,.05,0,.07,0,0,0,.02,0,.03,0,.07,0,.13.03.18.08s.07.12.07.2c0,.11-.05.21-.14.28s-.21.11-.35.11h0ZM74.24,60.14v-.11s-.16.06-.41.13c-.17.05-.26.12-.26.22,0,.16.09.24.25.24.27,0,.41-.16.41-.47h0Z" style="fill: #3a7220;"/>
    <path d="M76.51,58.53c.24,0,.45.1.65.31v-.37c0-.12-.04-.18-.12-.18-.02,0-.05,0-.11,0-.04.01-.08.02-.12.02-.06,0-.11-.03-.15-.08s-.06-.12-.06-.21c0-.22.1-.33.32-.33.07,0,.12,0,.15,0,.12.01.21.02.25.02.04,0,.1,0,.18,0,.08,0,.14,0,.17,0,.08,0,.13.02.16.06.03.04.04.11.04.22v2.35c0,.18.03.26.09.26.02,0,.04,0,.07-.02.02,0,.04,0,.07,0,.13,0,.2.09.2.26,0,.11-.02.19-.07.26s-.11.1-.19.1h-.03l-.16-.03s-.09,0-.16,0c-.08,0-.15,0-.2,0-.08,0-.12.02-.12.02-.1,0-.14-.06-.14-.18v-.19c-.16.31-.4.46-.72.46-.29,0-.52-.13-.7-.39-.19-.26-.27-.59-.27-.98s.09-.73.27-.98.42-.37.71-.37h0ZM76.68,59.18c-.12,0-.21.06-.28.18s-.11.28-.12.49v.07c0,.21.03.37.11.49s.17.18.29.18c.14,0,.25-.06.33-.2.09-.13.13-.31.13-.52s-.04-.38-.12-.51c-.09-.13-.19-.19-.33-.19h0Z" style="fill: #3a7220;"/>
    <path d="M79.41,58.49c.24,0,.44.07.6.22.01-.15.1-.21.25-.21s.24.06.24.18c0,.04,0,.09-.02.14,0,.06-.02.12-.02.18,0,0,0,.04,0,.08v.14c0,.18-.08.28-.25.28-.12,0-.22-.06-.31-.2-.1-.16-.23-.24-.39-.24-.18,0-.27.07-.27.21,0,.07.03.12.09.15.06.03.21.07.46.12.21.04.36.09.45.14.1.05.18.12.24.22.08.12.12.27.12.43,0,.26-.09.48-.27.65-.18.18-.41.26-.68.26s-.52-.09-.74-.29c0,.17-.08.25-.23.25-.17,0-.25-.08-.25-.23,0-.03,0-.09,0-.16s0-.12,0-.16c0-.03,0-.08,0-.14,0-.06,0-.11,0-.14,0-.15.09-.23.26-.23.09,0,.15.01.19.04.04.03.09.08.14.16.08.13.15.21.21.25s.16.06.29.06c.22,0,.33-.08.33-.23,0-.11-.09-.18-.27-.22l-.27-.06c-.22-.05-.38-.1-.47-.15s-.16-.13-.22-.24c-.05-.11-.08-.24-.08-.38,0-.26.08-.47.23-.63.15-.16.35-.24.6-.24h.02Z" style="fill: #3a7220;"/>
  </g>
  <polygon points="66.22 1.92 58.35 8.81 71.35 13.67 66.22 1.92" style="fill: #ad8e5e; stroke: #231f20; stroke-linecap: round; stroke-miterlimit: 10; stroke-width: .75px;"/>
  <g>
    <path d="M1.05,21.07l.24.07.14-.08-.24-.07.81-.45c.17.02.42.09.62.13,6.21,1.32,12.71,2.74,19.36,4.19.38.08.8.18,1.15.25l-2.88,1.66h-.05c-.11-.02-1.01-.31-1.24-.38-.12-.03-.1-.02-.15-.03-.37-.1-.91-.3-1.25-.38l-.44.24,2.46.78.15.06-2.98,1.64c-.21-.06-.28-.12-.38-.16-.55-.24-1.17-.49-1.63-.71-5.02-2.16-9.79-4.25-14.52-6.3l.83-.46h0ZM1.82,21.31l.53.17.16-.09-.53-.17-.16.09ZM3.18,21.59l-.18.1.78.24.18-.1-.78-.24ZM5.68,22.55l.24-.13c-.21-.07-.24-.06-.35-.09-.21-.06-.45-.14-.66-.21l-.08-.02c-.07,0-.26.08-.16.12l1.01.32h0ZM7.26,22.83l-.26.15,1.58.5.28-.15-1.6-.49h0ZM10.98,23.97l-.33.18,2.72.87.38-.21c-.5-.14-1.02-.32-1.48-.46-.12-.03-.08,0-.2-.04-.17-.05-1.05-.33-1.09-.34h0Z"/>
    <path d="M15.85,29.19c-.1-.02-.55-.26-.62-.29-5.3-2.49-10.25-4.87-15.23-7.22l.08-.07c.15.06.34.15.48.21,4.65,2.1,9.26,4.23,14.02,6.4.24.11,1.69.74,1.65.77l-.38.21h0Z"/>
    <path d="M23.75,24.85c-.97-.18-2.01-.4-3.04-.61-5.85-1.19-11.63-2.37-17.26-3.52-.11-.02-1.25-.24-1.29-.27l.17-.05c.36.08.66.12,1,.19,6.33,1.22,12.88,2.5,19.6,3.8.4.08.77.13,1.22.24,0,0-.39.22-.39.22Z"/>
  </g>
  <polygon points="30.17 56.07 10.23 38.86 97.38 23.15 100 23.48 30.17 56.07" style="fill: #263816; stroke: #231f20; stroke-linecap: round; stroke-miterlimit: 10;"/>
  <path d="M49.4,31.91c-.46-.06-.8-.47-1.31-.47l.84-6.88c3.06,1.46,1.33-1.12,1.89-2.86.17-.53.73-.9.89-1.47l.31-.12c1.37.09,2.71.09,4.03.49l-.09,4.42,1.84.35.89,4.96-.75,1.68c-.08.06-1.63-.16-1.8-.21-.09-.03-.08-.15-.07-.23-.48.27-.19.64-.21,1.1-.05,1.12-.16,2.27-.21,3.38-.03.72.2,2.2-.26,2.63-.6.57-1.66.48-2.36.18-.29-.13-.4-.4-.81-.5-.19-.05-1.11-.07-1.17-.15v-6.3c-.53-.05-1.12.06-1.63,0Z" style="fill: #fff;"/>
</svg>