<?xml version="1.0" encoding="UTF-8"?>
<svg id="Layer_1" data-name="Layer 1" xmlns="http://www.w3.org/2000/svg" viewBox="0 0 260.25 145.79">
  <g>
    <path d="M48.85,60.82l2.25.68,1.27-.65-2.25-.68,7.25-3.72c1.6.18,3.97.84,5.83,1.24,57.46,12.31,115.98,25.16,174.32,37.9,3.26.71,6.89,1.58,9.95,2.16l-24.36,13.21h-.4c-.99-.16-8.77-2.63-10.82-3.21-1.06-.3-.89-.14-1.37-.27-3.23-.88-7.94-2.54-10.98-3.2l-3.77,1.94,21.54,6.56,1.28.49-25.31,13c-1.85-.54-2.47-1-3.37-1.36-4.9-1.97-10.34-4.04-14.42-5.87-45.2-18.24-89.29-36.29-134-54.41l7.38-3.79ZM56.06,63.06l5.05,1.52,1.44-.74-5.05-1.52-1.44.74ZM68.82,65.66l-1.61.83,7.3,2.2,1.61-.83-7.3-2.2ZM92.23,74.24l2.12-1.09c-1.9-.66-2.24-.55-3.23-.83-1.93-.55-4.13-1.29-6.14-1.85l-.74-.17c-.58.04-2.33.66-1.38,1.03l9.37,2.9ZM106.79,76.83l-2.29,1.18,14.52,4.44,2.46-1.26-14.69-4.36ZM140.75,86.86l-2.88,1.48,24.54,7.53,3.31-1.7c-4.44-1.19-9.12-2.75-13.31-3.95-1.09-.31-.7-.08-1.79-.39-1.59-.45-9.46-2.9-9.86-2.98Z"/>
    <path d="M185.55,130.21c-.87-.16-4.92-2.14-5.47-2.38-47.6-20.78-93.37-41.22-140.59-61.95l.72-.61c1.41.57,3.31,1.33,4.6,1.87,43.98,18.51,86.49,36.82,129.38,55.09,2.17.93,14.95,6.15,14.64,6.31l-3.27,1.68Z"/>
    <path d="M252.67,95.75c-8.38-1.61-17.3-3.5-26.24-5.39-51.53-10.57-103.6-21.36-155.54-32.12-1.02-.21-11.69-2.3-12.12-2.52l1.57-.37c3.4.74,6.2,1.2,9.3,1.81,58.3,11.46,117.15,23.14,175.86,34.78,3.43.68,6.62,1.18,10.51,2.09l-3.35,1.72Z"/>
  </g>
  <polygon points="193.03 41.37 121.63 45.95 102.48 25.98 171.54 1.24 193.03 41.37" style="fill: #724a26; stroke: #231f20; stroke-linecap: round; stroke-miterlimit: 10;"/>
  <polygon points="88.32 30.92 137.12 14.42 137.5 70.68 88.38 61.46 88.32 30.92" style="fill: #c1a48a; stroke: #231f20; stroke-linecap: round; stroke-miterlimit: 10;"/>
  <polygon points="186.15 31.62 137.31 14.58 137.31 70.68 186.15 63.66 186.15 31.62" style="fill: #c1a48a; stroke: #231f20; stroke-linecap: round; stroke-miterlimit: 10;"/>
  <polygon points="67.58 45.95 133.09 32.78 171.54 1.24 97.34 24.31 67.58 45.95" style="fill: #724a26; stroke: #231f20; stroke-linecap: round; stroke-miterlimit: 10;"/>
  <g>
    <path d="M83.16,133.28l1,4.38,1.04-4.2c.09-.35.19-.59.29-.73.11-.13.26-.2.46-.2.18,0,.44.02.8.06.36.04.63.06.82.06s.67-.03,1.43-.1c.22-.02.38-.02.48-.02.26,0,.48.08.64.23.16.16.24.37.24.64,0,.22-.06.41-.19.56-.12.15-.28.23-.46.23-.07,0-.17-.01-.3-.04-.13-.03-.22-.04-.28-.04-.22,0-.32.27-.32.8v3.32c0,.54.1.82.31.82.06,0,.16-.01.29-.04.13-.03.22-.04.29-.04.18,0,.34.08.47.23s.19.34.19.56c0,.27-.08.49-.24.64-.16.16-.37.23-.64.23-.15,0-.41-.02-.77-.07-.24-.03-.48-.05-.72-.05-.15,0-.38.02-.67.06-.3.04-.52.06-.67.06-.24,0-.43-.08-.58-.24s-.22-.37-.22-.64c0-.5.16-.74.49-.74.05,0,.08,0,.11.01h.08s.05.01.06.01c.13,0,.2-.09.23-.26,0-.08.01-.22.01-.41v-4.52l-1.67,5.9c-.14.51-.38.77-.71.77h-.77c-.32,0-.54-.23-.66-.68l-1.6-5.99v4.52c0,.38.04.59.11.64.02.02.07.04.13.04.02,0,.04,0,.07-.01h.07s.06-.01.11-.01c.32,0,.48.24.48.73,0,.27-.07.49-.22.65s-.34.24-.58.24c-.11,0-.26-.01-.43-.04-.22-.03-.36-.05-.42-.06-.17-.02-.36-.02-.58-.02-.27,0-.5.01-.68.04l-.74.1c-.25,0-.45-.08-.61-.25-.16-.17-.24-.38-.24-.64,0-.23.06-.42.19-.57.12-.15.28-.22.47-.22.06,0,.16.01.28.04.12.03.22.04.28.04.16,0,.26-.1.3-.31.02-.08.02-.25.02-.5v-3.32c0-.26,0-.42-.02-.49-.04-.21-.14-.31-.3-.31-.06,0-.16.01-.28.04-.12.03-.22.04-.29.04-.18,0-.34-.08-.46-.23-.12-.15-.19-.34-.19-.56,0-.58.3-.88.89-.88.19,0,.51.02.96.06.45.04.78.06,1.01.06.36,0,.74-.02,1.13-.07.26-.03.47-.05.62-.05.2,0,.34.05.42.14.08.1.16.3.23.6Z" style="fill: #3a7220;"/>
    <path d="M93.47,134.56c.22,0,.34.16.34.47v3.61c0,.41.08.61.23.61.03,0,.09,0,.17-.03.08-.02.15-.03.21-.03.34,0,.5.21.5.62,0,.55-.24.83-.71.83-.08,0-.3-.02-.67-.06-.22-.02-.48-.04-.77-.04-.14,0-.36.02-.64.05-.28.03-.49.05-.62.05-.22,0-.39-.07-.53-.22-.14-.15-.2-.34-.2-.57,0-.46.19-.68.58-.68l.31.07s.06.01.08.01c.14,0,.22-.22.22-.67v-1.94c0-.46-.07-.68-.2-.68-.02,0-.1.02-.22.06-.08.02-.14.02-.19.02-.38,0-.58-.22-.58-.67,0-.24.07-.43.2-.58.14-.15.32-.22.54-.22.09,0,.22.01.38.04.28.04.5.06.67.06.14,0,.31-.02.53-.05.22-.03.34-.05.36-.05ZM92.79,134.1c-.3,0-.55-.11-.77-.32-.22-.22-.32-.47-.32-.77s.11-.56.32-.77c.21-.21.47-.32.77-.32s.56.11.77.32c.21.21.32.47.32.77s-.11.56-.32.77-.47.32-.77.32Z" style="fill: #3a7220;"/>
    <path d="M97.77,134.89v.58c.62-.72,1.31-1.08,2.09-1.08.83,0,1.42.31,1.76.94.18.32.28.82.28,1.51v1.8c0,.41.08.61.24.61.04,0,.1-.01.18-.04.04-.02.1-.02.18-.02.35,0,.53.21.53.62,0,.55-.24.83-.72.83-.13,0-.32-.02-.58-.05-.26-.03-.45-.05-.58-.05-.2,0-.41.02-.64.05s-.41.05-.55.05c-.47,0-.71-.24-.71-.73,0-.42.16-.65.49-.67.22-.02.32-.12.32-.3v-1.68c0-.46-.06-.79-.18-.98-.12-.19-.32-.28-.61-.28-.33,0-.6.11-.81.34s-.32.51-.32.85v1.25c0,.36.02.58.05.65.03.08.12.13.28.15.29.04.43.26.43.65,0,.5-.21.76-.64.76-.12,0-.27-.01-.44-.04-.3-.04-.52-.06-.66-.06s-.36.02-.64.05c-.28.03-.5.05-.64.05-.5,0-.76-.27-.76-.8,0-.45.19-.67.58-.67.06,0,.14.01.22.04.08.03.14.04.18.04.14,0,.2-.22.2-.67v-1.94c0-.46-.07-.68-.2-.68-.03,0-.09.01-.19.04-.09.03-.16.04-.21.04-.38,0-.58-.22-.58-.66,0-.24.07-.44.2-.59.13-.15.31-.23.52-.23.06,0,.2.02.41.06.12.02.22.04.31.04.1,0,.26-.02.49-.05.23-.03.36-.05.38-.05.22,0,.32.11.32.34Z" style="fill: #3a7220;"/>
    <path d="M109.21,137.08c0,.34-.04.56-.13.67s-.25.17-.5.17h-2.93c-.14,0-.23.01-.27.04s-.05.1-.05.21c0,.34.11.62.32.84.22.22.49.34.82.34s.68-.18,1.03-.55c.24-.26.5-.38.79-.38.24,0,.43.07.58.2.15.14.22.31.22.52,0,.46-.25.86-.76,1.18-.51.32-1.13.49-1.85.49-.95,0-1.71-.29-2.28-.86-.57-.58-.85-1.34-.85-2.3s.28-1.75.85-2.35c.56-.6,1.3-.89,2.21-.89.85,0,1.53.24,2.03.73.51.49.76,1.14.76,1.96ZM105.4,136.47s.01.09.04.12.11.05.25.05h1.34c.12,0,.19-.01.22-.04.03-.03.04-.08.04-.15,0-.21-.09-.39-.28-.55-.18-.16-.4-.23-.65-.23-.32,0-.58.12-.78.37-.13.16-.19.3-.19.43Z" style="fill: #3a7220;"/>
    <path d="M113.51,136.46c0-.12.04-.24.12-.36-.18-.13-.39-.19-.61-.19-.35,0-.64.15-.86.44-.22.29-.33.68-.33,1.17s.12.91.35,1.21c.23.3.54.46.92.46s.68-.21.86-.64c.11-.26.21-.43.29-.5.11-.1.29-.14.53-.14.27,0,.49.08.66.25.17.16.25.37.25.63,0,.54-.26,1.02-.79,1.42-.53.4-1.16.6-1.9.6-.94,0-1.7-.29-2.26-.87-.56-.58-.84-1.36-.84-2.33s.29-1.76.86-2.34,1.35-.86,2.33-.86c.7,0,1.29.17,1.75.5.46.33.69.75.69,1.27,0,.32-.1.58-.31.77-.21.2-.48.29-.8.29-.27,0-.49-.07-.66-.21-.17-.14-.25-.32-.25-.55Z" style="fill: #3a7220;"/>
    <path d="M118.73,134.93v1.02c.11-.41.24-.71.4-.9.35-.44.84-.66,1.48-.66.44,0,.81.14,1.11.43.3.28.45.63.45,1.05,0,.33-.1.6-.29.81-.19.21-.44.32-.73.32-.22,0-.41-.07-.57-.22-.16-.14-.23-.32-.23-.53,0-.11.05-.27.16-.47h-.07c-.54,0-.9.28-1.08.85-.14.46-.22.98-.22,1.57v.46c0,.29.02.47.07.55.03.05.09.07.17.07.07,0,.17-.02.3-.05.13-.03.22-.05.29-.05.18,0,.33.06.45.19s.19.27.19.45c0,.23-.08.43-.23.58-.16.16-.35.23-.57.23-.12,0-.34-.02-.67-.06-.2-.02-.45-.04-.76-.04s-.57.01-.8.04c-.38.04-.62.06-.71.06-.5,0-.74-.27-.74-.8,0-.45.19-.67.58-.67.06,0,.14.01.22.04.08.03.14.04.18.04.14,0,.2-.22.2-.67v-1.94c0-.46-.07-.68-.2-.68-.03,0-.09.01-.19.04-.09.03-.16.04-.21.04-.38,0-.58-.22-.58-.66,0-.24.06-.44.19-.59.13-.15.29-.23.49-.23.08,0,.19.02.34.05.14.03.28.05.41.05.1,0,.24-.02.42-.05.18-.03.32-.05.41-.05.25,0,.37.12.37.37Z" style="fill: #3a7220;"/>
    <path d="M127.77,140.8c-.66,0-1.1-.26-1.32-.79-.56.53-1.22.79-1.99.79-.63,0-1.14-.17-1.51-.5s-.56-.77-.56-1.33c0-.84.36-1.38,1.09-1.63.31-.1.67-.19,1.08-.26.57-.1.95-.21,1.16-.33s.31-.31.31-.57c0-.18-.08-.34-.23-.46-.16-.12-.35-.19-.58-.19-.26,0-.4.08-.4.25,0,.06,0,.11.01.17v.05c0,.22-.09.41-.28.56-.19.15-.42.23-.7.23-.32,0-.58-.1-.79-.29-.21-.19-.31-.43-.31-.72,0-.43.23-.77.68-1.02s1.08-.37,1.88-.37c.86,0,1.51.13,1.93.4.46.29.68.82.68,1.61v2.48c0,.26.06.38.19.38.06,0,.12,0,.18-.01.02,0,.05-.01.08-.01.18,0,.34.06.47.19s.19.28.19.47c0,.26-.12.48-.35.65s-.54.25-.91.25ZM126.03,138.23v-.26c-.06.03-.41.13-1.06.3-.44.11-.66.28-.66.52,0,.37.22.55.65.55.71,0,1.07-.37,1.07-1.1Z" style="fill: #3a7220;"/>
    <path d="M133,133.88c0-.09.03-.19.1-.31-.07-.03-.15-.05-.24-.05-.39,0-.59.19-.59.56v.24c0,.15.09.23.26.23h.36c.46,0,.7.22.7.65s-.22.67-.66.67h-.4c-.18,0-.26.1-.26.31v2.41c0,.26,0,.4.01.42.02.17.11.25.25.25.03,0,.1,0,.22-.02.09-.02.18-.04.28-.04.38,0,.56.22.56.66,0,.22-.07.41-.2.55-.14.14-.31.22-.52.22-.02,0-.26-.02-.73-.07-.16-.02-.39-.02-.7-.02-.34,0-.61.01-.82.04-.34.04-.56.06-.64.06-.22,0-.4-.07-.54-.22-.14-.15-.2-.34-.2-.58,0-.45.2-.67.59-.67.06,0,.14.01.22.04s.14.04.17.04c.14,0,.22-.22.22-.67v-2.39c0-.17-.04-.26-.11-.29-.03-.02-.08-.02-.16-.02h-.29c-.42,0-.64-.21-.64-.62,0-.46.22-.7.66-.7h.22c.14,0,.22-.02.26-.07.04-.04.06-.15.07-.32.02-.55.24-.99.65-1.31.41-.32.96-.48,1.65-.48.58,0,1.04.12,1.39.35.35.23.52.54.52.92,0,.24-.09.44-.26.6-.18.16-.4.24-.66.24-.22,0-.39-.06-.53-.17-.14-.12-.21-.26-.21-.44Z" style="fill: #3a7220;"/>
    <path d="M136.73,136.2v1.24s-.04.8-.04.8c0,.26-.01.37-.01.32,0,.47.15.71.46.71.29,0,.43-.21.43-.64,0-.06,0-.11-.01-.14v-.16c0-.06-.01-.1-.01-.12,0-.43.22-.65.65-.65.5,0,.76.4.76,1.21,0,.63-.19,1.13-.56,1.48-.38.36-.9.53-1.57.53-1.32,0-1.98-.7-1.98-2.09,0-.22.01-.56.03-1.01.02-.45.03-.78.03-1.01v-.38c0-.2-.02-.33-.05-.38-.04-.05-.12-.08-.26-.08h-.19c-.15,0-.28-.06-.37-.17s-.14-.27-.14-.45.05-.34.15-.47.22-.2.35-.2h.23c.19,0,.3-.06.34-.17.02-.06.04-.17.04-.32v-.59c0-.28.07-.47.22-.58.15-.1.42-.16.81-.16.28,0,.47.04.57.12s.15.26.15.53v.65c0,.23.02.38.07.43.04.06.16.08.34.08h.86c.47,0,.71.22.71.66s-.22.64-.65.64h-.98c-.17,0-.27.03-.3.08-.03.06-.05.14-.05.26Z" style="fill: #3a7220;"/>
    <path d="M145.86,132.37c.77,0,1.44.28,2,.84,0-.02-.01-.06-.01-.12,0-.45.24-.67.72-.67.22,0,.41.07.55.21.14.14.21.32.21.55,0,.1-.01.26-.04.46-.04.33-.06.56-.06.71,0,.1.01.26.04.46.03.2.04.36.04.46,0,.25-.09.45-.27.6-.18.15-.41.23-.7.23-.61,0-.9-.25-.89-.76v-.37c.02-.26-.09-.48-.31-.65-.22-.17-.51-.26-.85-.26-1.07,0-1.61.85-1.61,2.54,0,.88.13,1.52.39,1.93.26.4.67.61,1.24.61.35,0,.64-.08.86-.25.22-.16.33-.38.32-.64v-.43c-.02-.25.06-.45.23-.6.17-.15.38-.23.65-.23.34,0,.6.11.8.34.2.22.29.53.29.91,0,.76-.3,1.38-.91,1.87-.6.48-1.38.73-2.33.73-1.17,0-2.09-.37-2.77-1.12s-1.01-1.76-1.01-3.05.3-2.37.91-3.14c.61-.76,1.44-1.15,2.5-1.15Z" style="fill: #3a7220;"/>
    <path d="M152.55,134.93v1.02c.11-.41.24-.71.4-.9.35-.44.84-.66,1.48-.66.44,0,.81.14,1.11.43.3.28.45.63.45,1.05,0,.33-.1.6-.29.81-.19.21-.44.32-.73.32-.22,0-.41-.07-.57-.22-.16-.14-.23-.32-.23-.53,0-.11.05-.27.16-.47h-.07c-.54,0-.9.28-1.08.85-.14.46-.22.98-.22,1.57v.46c0,.29.02.47.07.55.03.05.09.07.17.07.07,0,.17-.02.3-.05.13-.03.22-.05.29-.05.18,0,.33.06.45.19s.19.27.19.45c0,.23-.08.43-.23.58-.16.16-.35.23-.57.23-.12,0-.34-.02-.67-.06-.2-.02-.45-.04-.76-.04s-.57.01-.8.04c-.38.04-.62.06-.71.06-.5,0-.74-.27-.74-.8,0-.45.19-.67.58-.67.06,0,.14.01.22.04s.14.04.18.04c.14,0,.2-.22.2-.67v-1.94c0-.46-.07-.68-.2-.68-.03,0-.09.01-.19.04-.09.03-.16.04-.21.04-.38,0-.58-.22-.58-.66,0-.24.06-.44.19-.59.13-.15.29-.23.49-.23.08,0,.19.02.34.05.14.03.28.05.41.05.1,0,.24-.02.42-.05.18-.03.32-.05.41-.05.25,0,.37.12.37.37Z" style="fill: #3a7220;"/>
    <path d="M159.29,140.8c-.99,0-1.76-.28-2.3-.84-.54-.56-.81-1.35-.81-2.36s.27-1.79.8-2.36c.54-.56,1.29-.85,2.26-.85s1.7.28,2.25.84c.55.56.82,1.33.82,2.3s-.27,1.82-.8,2.4-1.27.86-2.23.86ZM159.24,135.86c-.35,0-.63.15-.83.46-.2.31-.31.73-.31,1.27s.1.97.31,1.27c.2.3.49.46.86.46.74,0,1.12-.58,1.12-1.73s-.38-1.73-1.14-1.73Z" style="fill: #3a7220;"/>
    <path d="M165.34,134.39c.62,0,1.14.17,1.56.52.03-.34.25-.5.65-.5s.61.14.61.43c0,.1-.02.2-.05.32-.02.14-.04.28-.04.41,0,.02,0,.09.01.19v.32c0,.42-.21.64-.64.64-.3,0-.57-.15-.79-.46-.27-.37-.6-.55-1-.55-.46,0-.7.16-.7.48,0,.17.08.29.23.35.15.07.55.16,1.2.27.53.1.92.2,1.17.32.25.12.46.29.62.52.2.29.3.62.3,1.01,0,.61-.23,1.12-.7,1.52-.47.41-1.05.61-1.76.61s-1.34-.22-1.92-.67c0,.39-.2.59-.6.59-.43,0-.65-.18-.65-.53,0-.08,0-.2.02-.37s.02-.29.02-.37c0-.07,0-.18-.02-.32-.01-.14-.02-.25-.02-.32,0-.36.22-.54.67-.54.22,0,.38.03.49.1.11.06.23.19.36.37.2.3.38.49.55.58s.42.14.74.14c.58,0,.86-.18.86-.54,0-.25-.23-.42-.7-.52l-.7-.14c-.57-.12-.97-.24-1.21-.36-.24-.12-.42-.31-.56-.57-.14-.26-.2-.56-.2-.89,0-.6.2-1.09.59-1.46.4-.38.91-.56,1.55-.56Z" style="fill: #3a7220;"/>
    <path d="M171.46,134.39c.62,0,1.14.17,1.56.52.03-.34.25-.5.65-.5s.61.14.61.43c0,.1-.02.2-.05.32-.02.14-.04.28-.04.41,0,.02,0,.09.01.19v.32c0,.42-.21.64-.64.64-.3,0-.57-.15-.79-.46-.27-.37-.6-.55-1-.55-.46,0-.7.16-.7.48,0,.17.08.29.23.35.15.07.55.16,1.2.27.53.1.92.2,1.17.32.25.12.46.29.62.52.2.29.3.62.3,1.01,0,.61-.23,1.12-.7,1.52-.47.41-1.05.61-1.76.61s-1.34-.22-1.92-.67c0,.39-.2.59-.6.59-.43,0-.65-.18-.65-.53,0-.08,0-.2.02-.37s.02-.29.02-.37c0-.07,0-.18-.02-.32-.01-.14-.02-.25-.02-.32,0-.36.22-.54.67-.54.22,0,.38.03.49.1.11.06.23.19.36.37.2.3.38.49.55.58s.42.14.74.14c.58,0,.86-.18.86-.54,0-.25-.23-.42-.7-.52l-.7-.14c-.57-.12-.97-.24-1.21-.36-.24-.12-.42-.31-.56-.57-.14-.26-.2-.56-.2-.89,0-.6.2-1.09.59-1.46.4-.38.91-.56,1.55-.56Z" style="fill: #3a7220;"/>
    <path d="M177.67,134.93v1.02c.11-.41.24-.71.4-.9.35-.44.84-.66,1.48-.66.44,0,.81.14,1.11.43.3.28.45.63.45,1.05,0,.33-.1.6-.29.81-.19.21-.44.32-.73.32-.22,0-.41-.07-.57-.22-.16-.14-.23-.32-.23-.53,0-.11.05-.27.16-.47h-.07c-.54,0-.9.28-1.08.85-.14.46-.22.98-.22,1.57v.46c0,.29.02.47.07.55.03.05.09.07.17.07.07,0,.17-.02.3-.05.13-.03.22-.05.29-.05.18,0,.33.06.45.19.12.12.19.27.19.45,0,.23-.08.43-.23.58s-.35.23-.57.23c-.12,0-.34-.02-.67-.06-.2-.02-.45-.04-.76-.04s-.57.01-.8.04c-.38.04-.62.06-.71.06-.5,0-.74-.27-.74-.8,0-.45.19-.67.58-.67.06,0,.14.01.22.04s.14.04.18.04c.14,0,.2-.22.2-.67v-1.94c0-.46-.07-.68-.2-.68-.03,0-.09.01-.19.04-.09.03-.16.04-.21.04-.38,0-.58-.22-.58-.66,0-.24.06-.44.19-.59.13-.15.29-.23.49-.23.08,0,.19.02.34.05.14.03.28.05.41.05.1,0,.24-.02.42-.05.18-.03.32-.05.41-.05.25,0,.37.12.37.37Z" style="fill: #3a7220;"/>
    <path d="M184.42,140.8c-.99,0-1.76-.28-2.3-.84-.54-.56-.81-1.35-.81-2.36s.27-1.79.8-2.36c.54-.56,1.29-.85,2.26-.85s1.7.28,2.25.84c.55.56.82,1.33.82,2.3s-.27,1.82-.8,2.4c-.53.58-1.27.86-2.23.86ZM184.37,135.86c-.35,0-.63.15-.83.46-.2.31-.31.73-.31,1.27s.1.97.31,1.27c.2.3.49.46.86.46.74,0,1.12-.58,1.12-1.73s-.38-1.73-1.14-1.73Z" style="fill: #3a7220;"/>
    <path d="M193.48,140.8c-.66,0-1.1-.26-1.32-.79-.56.53-1.22.79-1.99.79-.63,0-1.14-.17-1.51-.5-.38-.33-.56-.77-.56-1.33,0-.84.36-1.38,1.09-1.63.31-.1.67-.19,1.08-.26.57-.1.95-.21,1.16-.33s.31-.31.31-.57c0-.18-.08-.34-.23-.46-.16-.12-.35-.19-.58-.19-.26,0-.4.08-.4.25,0,.06,0,.11.01.17v.05c0,.22-.09.41-.28.56-.19.15-.42.23-.7.23-.32,0-.58-.1-.79-.29-.21-.19-.31-.43-.31-.72,0-.43.23-.77.68-1.02s1.08-.37,1.88-.37c.86,0,1.51.13,1.93.4.46.29.68.82.68,1.61v2.48c0,.26.06.38.19.38.06,0,.12,0,.18-.01.02,0,.05-.01.08-.01.18,0,.34.06.47.19s.19.28.19.47c0,.26-.12.48-.35.65s-.54.25-.91.25ZM191.74,138.23v-.26c-.06.03-.41.13-1.06.3-.44.11-.66.28-.66.52,0,.37.22.55.65.55.71,0,1.07-.37,1.07-1.1Z" style="fill: #3a7220;"/>
    <path d="M197.62,134.47c.61,0,1.17.24,1.68.71v-.86c0-.29-.1-.43-.3-.43-.05,0-.14,0-.29.02-.1.03-.21.05-.31.05-.15,0-.28-.06-.38-.19-.1-.13-.16-.29-.16-.48,0-.51.27-.77.82-.77.18,0,.3,0,.38.01.32.03.54.05.65.05.1,0,.26,0,.46-.02.2-.02.35-.02.44-.02.2,0,.34.05.41.14.08.09.11.26.11.51v5.46c0,.41.08.61.23.61.05,0,.11-.01.18-.04.05-.02.11-.02.19-.02.34,0,.52.2.52.61,0,.25-.06.45-.18.61-.12.16-.28.23-.48.23h-.07l-.42-.07c-.1-.02-.23-.02-.41-.02-.21,0-.38,0-.52.02-.2.02-.31.04-.32.04-.25,0-.37-.14-.37-.43v-.44c-.42.71-1.04,1.07-1.87,1.07-.74,0-1.34-.3-1.82-.91-.48-.6-.71-1.37-.71-2.29s.23-1.69.7-2.27c.47-.58,1.08-.86,1.84-.86ZM198.04,135.98c-.3,0-.54.14-.73.42-.19.28-.29.66-.32,1.14v.16c0,.49.09.87.28,1.15.19.28.44.42.76.42.35,0,.64-.15.86-.46.22-.3.33-.71.33-1.21s-.11-.88-.32-1.18c-.22-.3-.5-.44-.86-.44Z" style="fill: #3a7220;"/>
    <path d="M205.1,134.39c.62,0,1.14.17,1.56.52.03-.34.25-.5.65-.5s.61.14.61.43c0,.1-.02.2-.05.32-.02.14-.04.28-.04.41,0,.02,0,.09.01.19v.32c0,.42-.21.64-.64.64-.3,0-.57-.15-.79-.46-.27-.37-.6-.55-1-.55-.46,0-.7.16-.7.48,0,.17.08.29.23.35.15.07.55.16,1.2.27.53.1.92.2,1.17.32.25.12.46.29.62.52.2.29.3.62.3,1.01,0,.61-.23,1.12-.7,1.52-.47.41-1.05.61-1.76.61s-1.34-.22-1.92-.67c0,.39-.2.59-.6.59-.43,0-.65-.18-.65-.53,0-.08,0-.2.02-.37s.02-.29.02-.37c0-.07,0-.18-.02-.32-.01-.14-.02-.25-.02-.32,0-.36.22-.54.67-.54.22,0,.38.03.49.1.11.06.23.19.36.37.2.3.38.49.55.58s.42.14.74.14c.58,0,.86-.18.86-.54,0-.25-.23-.42-.7-.52l-.7-.14c-.57-.12-.97-.24-1.21-.36-.24-.12-.42-.31-.56-.57-.14-.26-.2-.56-.2-.89,0-.6.2-1.09.59-1.46.4-.38.91-.56,1.55-.56Z" style="fill: #3a7220;"/>
  </g>
  <polygon points="171.03 2.76 150.71 18.79 184.29 30.1 171.03 2.76" style="fill: #ad8e5e; stroke: #231f20; stroke-linecap: round; stroke-miterlimit: 10; stroke-width: .75px;"/>
  <g>
    <path d="M2.72,47.32l.61.17.37-.18-.61-.17,2.1-1.05c.44.04,1.09.21,1.6.3,16.05,3.08,32.82,6.38,50,9.74.97.19,2.06.42,2.98.58l-7.43,3.87h-.12c-.29-.04-2.6-.72-3.21-.88-.31-.08-.27-.04-.4-.07-.95-.24-2.34-.7-3.23-.88l-1.14.57,6.35,1.81.38.14-7.69,3.81c-.54-.15-.72-.28-.99-.38-1.43-.56-3.02-1.13-4.2-1.65-12.96-5.03-25.29-9.89-37.5-14.65l2.14-1.07ZM4.69,47.89l1.38.39.42-.21-1.38-.39-.42.21ZM8.21,48.53l-.47.23,2.01.57.47-.23-2.01-.57ZM14.66,50.77l.62-.31c-.53-.17-.63-.14-.9-.21-.54-.14-1.15-.33-1.71-.48l-.21-.04c-.17.01-.67.19-.41.29l2.6.75ZM18.76,51.42l-.67.34,4.08,1.17.73-.36-4.13-1.14ZM28.37,54.06l-.86.43,7.03,2.02.99-.49c-1.28-.32-2.63-.74-3.83-1.06-.31-.08-.2-.02-.52-.1-.45-.12-2.7-.77-2.82-.79Z"/>
    <path d="M40.93,66.22c-.26-.04-1.43-.61-1.6-.67-13.68-5.79-26.47-11.33-39.33-16.81l.21-.17c.38.15.89.34,1.24.49,12.02,4.88,23.91,9.84,36.2,14.9.63.26,4.36,1.73,4.26,1.78l-.99.49Z"/>
    <path d="M61.35,56.12c-2.51-.43-5.18-.93-7.84-1.43-15.12-2.76-30.04-5.51-44.58-8.19-.28-.05-3.23-.56-3.34-.62l.45-.11c.94.18,1.71.29,2.57.44,16.34,2.84,33.27,5.81,50.61,8.85,1.03.18,1.99.31,3.15.55l-1.02.51Z"/>
  </g>
  <polygon points="77.92 128.76 26.41 88.71 251.52 52.17 258.28 52.92 77.92 128.76" style="fill: #263816; stroke: #231f20; stroke-linecap: round; stroke-miterlimit: 10;"/>
  <g>
    <polygon points="154.18 36.04 154.45 36.04 154.45 88.71 120.89 88.71 120.89 88.44 154.19 88.44 154.18 36.04" style="fill: #fff;"/>
    <path d="M127.25,67.81c-1.18-.13-2.06-1.1-3.39-1.09l2.17-16.01c7.9,3.39,3.43-2.6,4.88-6.65.44-1.23,1.88-2.1,2.29-3.41l.8-.28c3.53.2,7.01.22,10.4,1.14l-.23,10.28,4.74.81,2.31,11.54-1.95,3.9c-.2.13-4.2-.38-4.65-.5-.24-.07-.21-.35-.19-.54-1.23.62-.5,1.5-.55,2.57-.14,2.6-.42,5.27-.54,7.87-.07,1.67.52,5.11-.66,6.12-1.54,1.32-4.29,1.12-6.1.41-.76-.3-1.03-.93-2.09-1.16-.5-.11-2.86-.17-3.03-.35v-14.65c-1.36-.11-2.89.15-4.21,0Z" style="fill: #fff;"/>
  </g>
</svg>